<svg width="29" height="29" viewBox="0 0 29 29" fill="none" xmlns="http://www.w3.org/2000/svg">
<path d="M28.1034 23.8379L18.7706 14.5L28.1034 5.16205C29.2779 3.98694 29.2779 2.05644 28.1034 0.881333C26.9289 -0.293778 24.9995 -0.293778 23.825 0.881333L14.4922 10.2192L5.1593 0.881333C3.98483 -0.293778 2.05533 -0.293778 0.880854 0.881333C-0.293618 2.05644 -0.293618 3.98694 0.880854 5.16205L10.2137 14.5L0.880854 23.8379C-0.293618 25.013 -0.293618 26.9436 0.880854 28.1187C2.05533 29.2938 3.98483 29.2938 5.1593 28.1187L14.4922 18.7808L23.825 28.1187C24.9995 29.2938 26.9289 29.2938 28.1034 28.1187C29.2989 26.9436 29.2989 25.034 28.1034 23.8379Z" fill="#8338EC" fill-opacity="0.46"/>
</svg>
